<?xml version="1.0" encoding="UTF-8" standalone="no"?>
<!DOCTYPE svg PUBLIC "-//W3C//DTD SVG 1.1//EN"
 "http://www.w3.org/Graphics/SVG/1.1/DTD/svg11.dtd">
<!-- Generated by graphviz version 2.43.0 (0)
 -->
<!-- Title: snakemake_dag Pages: 1 -->
<svg width="612pt" height="332pt"
 viewBox="0.00 0.00 611.50 332.00" xmlns="http://www.w3.org/2000/svg" xmlns:xlink="http://www.w3.org/1999/xlink">
<g id="graph0" class="graph" transform="scale(1 1) rotate(0) translate(4 328)">
<title>snakemake_dag</title>
<polygon fill="white" stroke="transparent" points="-4,4 -4,-328 607.5,-328 607.5,4 -4,4"/>
<!-- 1 -->
<g id="node1" class="node">
<title>1</title>
<path fill="none" stroke="#d89556" stroke-width="2" d="M261,-252C261,-252 231,-252 231,-252 225,-252 219,-246 219,-240 219,-240 219,-228 219,-228 219,-222 225,-216 231,-216 231,-216 261,-216 261,-216 267,-216 273,-222 273,-228 273,-228 273,-240 273,-240 273,-246 267,-252 261,-252"/>
<text text-anchor="middle" x="246" y="-231.5" font-family="sans" font-size="10.00">multiqc</text>
</g>
<!-- 2 -->
<g id="node2" class="node">
<title>2</title>
<path fill="none" stroke="#78d856" stroke-width="2" d="M261,-324C261,-324 231,-324 231,-324 225,-324 219,-318 219,-312 219,-312 219,-300 219,-300 219,-294 225,-288 231,-288 231,-288 261,-288 261,-288 267,-288 273,-294 273,-300 273,-300 273,-312 273,-312 273,-318 267,-324 261,-324"/>
<text text-anchor="middle" x="246" y="-303.5" font-family="sans" font-size="10.00">fastqc</text>
</g>
<!-- 2&#45;&gt;1 -->
<g id="edge1" class="edge">
<title>2&#45;&gt;1</title>
<path fill="none" stroke="grey" stroke-width="2" d="M246,-287.7C246,-279.98 246,-270.71 246,-262.11"/>
<polygon fill="grey" stroke="grey" stroke-width="2" points="249.5,-262.1 246,-252.1 242.5,-262.1 249.5,-262.1"/>
</g>
<!-- 3 -->
<g id="node3" class="node">
<title>3</title>
<path fill="none" stroke="#d6d856" stroke-width="2" d="M119,-108C119,-108 15,-108 15,-108 9,-108 3,-102 3,-96 3,-96 3,-84 3,-84 3,-78 9,-72 15,-72 15,-72 119,-72 119,-72 125,-72 131,-78 131,-84 131,-84 131,-96 131,-96 131,-102 125,-108 119,-108"/>
<text text-anchor="middle" x="67" y="-87.5" font-family="sans" font-size="10.00">normalise_count_table</text>
</g>
<!-- 11 -->
<g id="node11" class="node">
<title>11</title>
<path fill="none" stroke="#56d8b9" stroke-width="2" d="M122,-36C122,-36 12,-36 12,-36 6,-36 0,-30 0,-24 0,-24 0,-12 0,-12 0,-6 6,0 12,0 12,0 122,0 122,0 128,0 134,-6 134,-12 134,-12 134,-24 134,-24 134,-30 128,-36 122,-36"/>
<text text-anchor="middle" x="67" y="-15.5" font-family="sans" font-size="10.00">plot_sample_correlation</text>
</g>
<!-- 3&#45;&gt;11 -->
<g id="edge9" class="edge">
<title>3&#45;&gt;11</title>
<path fill="none" stroke="grey" stroke-width="2" d="M67,-71.7C67,-63.98 67,-54.71 67,-46.11"/>
<polygon fill="grey" stroke="grey" stroke-width="2" points="70.5,-46.1 67,-36.1 63.5,-46.1 70.5,-46.1"/>
</g>
<!-- 4 -->
<g id="node4" class="node">
<title>4</title>
<path fill="none" stroke="#59d856" stroke-width="2" d="M342,-180C342,-180 256,-180 256,-180 250,-180 244,-174 244,-168 244,-168 244,-156 244,-156 244,-150 250,-144 256,-144 256,-144 342,-144 342,-144 348,-144 354,-150 354,-156 354,-156 354,-168 354,-168 354,-174 348,-180 342,-180"/>
<text text-anchor="middle" x="299" y="-159.5" font-family="sans" font-size="10.00">aggregated_counts</text>
</g>
<!-- 4&#45;&gt;3 -->
<g id="edge2" class="edge">
<title>4&#45;&gt;3</title>
<path fill="none" stroke="grey" stroke-width="2" d="M243.72,-144.32C210.53,-134.31 168.08,-121.5 133.11,-110.95"/>
<polygon fill="grey" stroke="grey" stroke-width="2" points="134.05,-107.57 123.46,-108.04 132.03,-114.28 134.05,-107.57"/>
</g>
<!-- 9 -->
<g id="node9" class="node">
<title>9</title>
<path fill="none" stroke="#56d87b" stroke-width="2" d="M223,-108C223,-108 161,-108 161,-108 155,-108 149,-102 149,-96 149,-96 149,-84 149,-84 149,-78 155,-72 161,-72 161,-72 223,-72 223,-72 229,-72 235,-78 235,-84 235,-84 235,-96 235,-96 235,-102 229,-108 223,-108"/>
<text text-anchor="middle" x="192" y="-87.5" font-family="sans" font-size="10.00">plot_coverage</text>
</g>
<!-- 4&#45;&gt;9 -->
<g id="edge7" class="edge">
<title>4&#45;&gt;9</title>
<path fill="none" stroke="grey" stroke-width="2" d="M272.82,-143.88C258.96,-134.81 241.76,-123.55 226.79,-113.76"/>
<polygon fill="grey" stroke="grey" stroke-width="2" points="228.56,-110.74 218.28,-108.19 224.73,-116.59 228.56,-110.74"/>
</g>
<!-- 10 -->
<g id="node10" class="node">
<title>10</title>
<path fill="none" stroke="#567bd8" stroke-width="2" d="M332.5,-108C332.5,-108 265.5,-108 265.5,-108 259.5,-108 253.5,-102 253.5,-96 253.5,-96 253.5,-84 253.5,-84 253.5,-78 259.5,-72 265.5,-72 265.5,-72 332.5,-72 332.5,-72 338.5,-72 344.5,-78 344.5,-84 344.5,-84 344.5,-96 344.5,-96 344.5,-102 338.5,-108 332.5,-108"/>
<text text-anchor="middle" x="299" y="-87.5" font-family="sans" font-size="10.00">plot_gini_index</text>
</g>
<!-- 4&#45;&gt;10 -->
<g id="edge8" class="edge">
<title>4&#45;&gt;10</title>
<path fill="none" stroke="grey" stroke-width="2" d="M299,-143.7C299,-135.98 299,-126.71 299,-118.11"/>
<polygon fill="grey" stroke="grey" stroke-width="2" points="302.5,-118.1 299,-108.1 295.5,-118.1 302.5,-118.1"/>
</g>
<!-- 12 -->
<g id="node12" class="node">
<title>12</title>
<path fill="none" stroke="#97d856" stroke-width="2" d="M463,-108C463,-108 375,-108 375,-108 369,-108 363,-102 363,-96 363,-96 363,-84 363,-84 363,-78 369,-72 375,-72 375,-72 463,-72 463,-72 469,-72 475,-78 475,-84 475,-84 475,-96 475,-96 475,-102 469,-108 463,-108"/>
<text text-anchor="middle" x="419" y="-87.5" font-family="sans" font-size="10.00">plot_missed_rgrnas</text>
</g>
<!-- 4&#45;&gt;12 -->
<g id="edge10" class="edge">
<title>4&#45;&gt;12</title>
<path fill="none" stroke="grey" stroke-width="2" d="M328.36,-143.88C344.05,-134.72 363.56,-123.34 380.45,-113.48"/>
<polygon fill="grey" stroke="grey" stroke-width="2" points="382.66,-116.25 389.53,-108.19 379.13,-110.21 382.66,-116.25"/>
</g>
<!-- 13 -->
<g id="node13" class="node">
<title>13</title>
<path fill="none" stroke="#569ad8" stroke-width="2" d="M537,-108C537,-108 505,-108 505,-108 499,-108 493,-102 493,-96 493,-96 493,-84 493,-84 493,-78 499,-72 505,-72 505,-72 537,-72 537,-72 543,-72 549,-78 549,-84 549,-84 549,-96 549,-96 549,-102 543,-108 537,-108"/>
<text text-anchor="middle" x="521" y="-87.5" font-family="sans" font-size="10.00">mageck</text>
</g>
<!-- 4&#45;&gt;13 -->
<g id="edge11" class="edge">
<title>4&#45;&gt;13</title>
<path fill="none" stroke="grey" stroke-width="2" d="M354,-146.23C395.35,-134.97 449.4,-119.85 483.44,-107.89"/>
<polygon fill="grey" stroke="grey" stroke-width="2" points="484.7,-111.15 492.9,-104.44 482.31,-104.57 484.7,-111.15"/>
</g>
<!-- 5 -->
<g id="node5" class="node">
<title>5</title>
<path fill="none" stroke="#d87556" stroke-width="2" d="M379,-252C379,-252 349,-252 349,-252 343,-252 337,-246 337,-240 337,-240 337,-228 337,-228 337,-222 343,-216 349,-216 349,-216 379,-216 379,-216 385,-216 391,-222 391,-228 391,-228 391,-240 391,-240 391,-246 385,-252 379,-252"/>
<text text-anchor="middle" x="364" y="-231.5" font-family="sans" font-size="10.00">count</text>
</g>
<!-- 5&#45;&gt;4 -->
<g id="edge3" class="edge">
<title>5&#45;&gt;4</title>
<path fill="none" stroke="grey" stroke-width="2" d="M347.93,-215.7C340.06,-207.22 330.44,-196.86 321.83,-187.58"/>
<polygon fill="grey" stroke="grey" stroke-width="2" points="324.25,-185.05 314.88,-180.1 319.12,-189.81 324.25,-185.05"/>
</g>
<!-- 8 -->
<g id="node8" class="node">
<title>8</title>
<path fill="none" stroke="#56d8d8" stroke-width="2" d="M475.5,-180C475.5,-180 384.5,-180 384.5,-180 378.5,-180 372.5,-174 372.5,-168 372.5,-168 372.5,-156 372.5,-156 372.5,-150 378.5,-144 384.5,-144 384.5,-144 475.5,-144 475.5,-144 481.5,-144 487.5,-150 487.5,-156 487.5,-156 487.5,-168 487.5,-168 487.5,-174 481.5,-180 475.5,-180"/>
<text text-anchor="middle" x="430" y="-159.5" font-family="sans" font-size="10.00">plot_alignment_rate</text>
</g>
<!-- 5&#45;&gt;8 -->
<g id="edge6" class="edge">
<title>5&#45;&gt;8</title>
<path fill="none" stroke="grey" stroke-width="2" d="M380.31,-215.7C388.31,-207.22 398.07,-196.86 406.82,-187.58"/>
<polygon fill="grey" stroke="grey" stroke-width="2" points="409.56,-189.78 413.87,-180.1 404.47,-184.98 409.56,-189.78"/>
</g>
<!-- 6 -->
<g id="node6" class="node">
<title>6</title>
<path fill="none" stroke="#d8b456" stroke-width="2" d="M338.5,-324C338.5,-324 303.5,-324 303.5,-324 297.5,-324 291.5,-318 291.5,-312 291.5,-312 291.5,-300 291.5,-300 291.5,-294 297.5,-288 303.5,-288 303.5,-288 338.5,-288 338.5,-288 344.5,-288 350.5,-294 350.5,-300 350.5,-300 350.5,-312 350.5,-312 350.5,-318 344.5,-324 338.5,-324"/>
<text text-anchor="middle" x="321" y="-303.5" font-family="sans" font-size="10.00">cutadapt</text>
</g>
<!-- 6&#45;&gt;5 -->
<g id="edge5" class="edge">
<title>6&#45;&gt;5</title>
<path fill="none" stroke="grey" stroke-width="2" d="M331.63,-287.7C336.63,-279.56 342.69,-269.69 348.21,-260.7"/>
<polygon fill="grey" stroke="grey" stroke-width="2" points="351.24,-262.46 353.49,-252.1 345.28,-258.79 351.24,-262.46"/>
</g>
<!-- 7 -->
<g id="node7" class="node">
<title>7</title>
<path fill="none" stroke="#d85656" stroke-width="2" d="M435.5,-324C435.5,-324 380.5,-324 380.5,-324 374.5,-324 368.5,-318 368.5,-312 368.5,-312 368.5,-300 368.5,-300 368.5,-294 374.5,-288 380.5,-288 380.5,-288 435.5,-288 435.5,-288 441.5,-288 447.5,-294 447.5,-300 447.5,-300 447.5,-312 447.5,-312 447.5,-318 441.5,-324 435.5,-324"/>
<text text-anchor="middle" x="408" y="-303.5" font-family="sans" font-size="10.00">hisat2_index</text>
</g>
<!-- 7&#45;&gt;5 -->
<g id="edge4" class="edge">
<title>7&#45;&gt;5</title>
<path fill="none" stroke="grey" stroke-width="2" d="M397.12,-287.7C392.01,-279.56 385.8,-269.69 380.16,-260.7"/>
<polygon fill="grey" stroke="grey" stroke-width="2" points="383.04,-258.71 374.75,-252.1 377.11,-262.43 383.04,-258.71"/>
</g>
<!-- 14 -->
<g id="node14" class="node">
<title>14</title>
<path fill="none" stroke="#56b9d8" stroke-width="2" d="M494,-36C494,-36 460,-36 460,-36 454,-36 448,-30 448,-24 448,-24 448,-12 448,-12 448,-6 454,0 460,0 460,0 494,0 494,0 500,0 506,-6 506,-12 506,-12 506,-24 506,-24 506,-30 500,-36 494,-36"/>
<text text-anchor="middle" x="477" y="-15.5" font-family="sans" font-size="10.00">lfc_plots</text>
</g>
<!-- 13&#45;&gt;14 -->
<g id="edge12" class="edge">
<title>13&#45;&gt;14</title>
<path fill="none" stroke="grey" stroke-width="2" d="M510.12,-71.7C505.01,-63.56 498.8,-53.69 493.16,-44.7"/>
<polygon fill="grey" stroke="grey" stroke-width="2" points="496.04,-42.71 487.75,-36.1 490.11,-46.43 496.04,-42.71"/>
</g>
<!-- 15 -->
<g id="node15" class="node">
<title>15</title>
<path fill="none" stroke="#b6d856" stroke-width="2" d="M591.5,-36C591.5,-36 536.5,-36 536.5,-36 530.5,-36 524.5,-30 524.5,-24 524.5,-24 524.5,-12 524.5,-12 524.5,-6 530.5,0 536.5,0 536.5,0 591.5,0 591.5,0 597.5,0 603.5,-6 603.5,-12 603.5,-12 603.5,-24 603.5,-24 603.5,-30 597.5,-36 591.5,-36"/>
<text text-anchor="middle" x="564" y="-15.5" font-family="sans" font-size="10.00">sg_rank_plot</text>
</g>
<!-- 13&#45;&gt;15 -->
<g id="edge13" class="edge">
<title>13&#45;&gt;15</title>
<path fill="none" stroke="grey" stroke-width="2" d="M531.63,-71.7C536.63,-63.56 542.69,-53.69 548.21,-44.7"/>
<polygon fill="grey" stroke="grey" stroke-width="2" points="551.24,-46.46 553.49,-36.1 545.28,-42.79 551.24,-46.46"/>
</g>
</g>
</svg>
